{"title":"Pitbull ft.Don Miguelo - Como Yo Le Doy (2014.Latin)","uid":11153699,"size":105788614,"categoryP":"video","categoryS":"music_videos","magnet":"?xt=urn:btih:e71f96fcb4ff37672a762b04274494b6fbbf2244&amp;dn=Pitbull+ft.Don+Miguelo+-+Como+Yo+Le+Doy+%282014.Latin%29&amp;tr=udp%3A%2F%2Ftracker.openbittorrent.com%3A80&amp;tr=udp%3A%2F%2Fopen.demonii.com%3A1337&amp;tr=udp%3A%2F%2Ftracker.coppersurfer.tk%3A6969&amp;tr=udp%3A%2F%2Fexodus.desync.com%3A6969","seeders":12,"leechers":1,"uploader":"MeRaDil","files":-1,"time":1412380329,"description":"PITBULL ft.DON MIGUELO - COMO YO LE DOY\n\n\n\nMPEG4 MUSIC VID\n\n &lt;a href=&quot;\nhttp://gifyu.com/images/Pitbullb5060.png&quot; rel=&quot;nofollow&quot; target=&quot;_NEW&quot;&gt;\nhttp://gifyu.com/images/Pitbullb5060.png&lt;/a&gt;\n\n\nGeneral\nComplete name                            : Pitbull ft. Don Miguelo - Como Yo Le Doy\nFormat                                   : MPEG-4\nFormat profile                           : Base Media\nCodec ID                                 : isom\nFile size                                : 101 MiB\nDuration                                 : 4mn 16s\nOverall bit rate                         : 3 294 Kbps\nMusic Vid name                           : Como Yo Le Doy\nPerformer                                : Pitbull ft. Don Miguelo\nGenre                                    : Latin Pop\nContentType                              : Music Video\nRecorded date                            : 2014\nCopyright                                : Pitbull\nCover                                    : Yes\nRating                                   : ***\nMake                                     : MeRaDil\noday                                     : 03-10-2014 USA\naurl                                     : http://www.pitbullmusic.com/us\nrelt                                     : USA - october 3 - 2014\nPart_ID                                  : Como Yo Le Doy\n\nVideo\nID                                       : 1\nFormat                                   : AVC\nFormat/Info                              : Advanced Video Codec\nFormat profile                           : &lt;a class=&quot;__cf_email__&quot; href=&quot;/cdn-cgi/l/email-protection&quot; data-cfemail=&quot;6f270608072f235b415f&quot;&gt;[email&amp;#160;protected]&lt;/a&gt;&lt;script cf-hash='f9e31' type=&quot;text/javascript&quot;&gt;\n/* &lt;![CDATA[ */!function(){try{var t=&quot;currentScript&quot;in document?document.currentScript:function(){for(var t=document.getElementsByTagName(&quot;script&quot;),e=t.length;e--;)if(t[e].getAttribute(&quot;cf-hash&quot;))return t[e]}();if(t&amp;&amp;t.previousSibling){var e,r,n,i,c=t.previousSibling,a=c.getAttribute(&quot;data-cfemail&quot;);if(a){for(e=&quot;&quot;,r=parseInt(a.substr(0,2),16),n=2;a.length-n;n+=2)i=parseInt(a.substr(n,2),16)^r,e+=String.fromCharCode(i);e=document.createTextNode(e),c.parentNode.replaceChild(e,c)}}}catch(u){}}();/* ]]&gt; */&lt;/script&gt;\nFormat settings, CABAC                   : Yes\nFormat settings, ReFrames                : 2 frames\nCodec ID                                 : avc1\nCodec ID/Info                            : Advanced Video Coding\nDuration                                 : 4mn 16s\nBit rate                                 : 3 031 Kbps\nWidth                                    : 1 920 pixels\nHeight                                   : 1 080 pixels\nDisplay aspect ratio                     : 16:9\nFrame rate mode                          : Variable\nFrame rate                               : 23.976 fps\nMinimum frame rate                       : 23.974 fps\nMaximum frame rate                       : 23.981 fps\nColor space                              : YUV\nChroma subsampling                       : 4:2:0\nBit depth                                : 8 bits\nScan type                                : Progressive\nBits/(Pixel*Frame)                       : 0.061\nStream size                              : 92.8 MiB (92%)\n\nAudio\nID                                       : 2\nFormat                                   : AAC\nFormat/Info                              : Advanced Audio Codec\nFormat profile                           : LC\nCodec ID                                 : 40\nDuration                                 : 4mn 16s\nBit rate mode                            : Constant\nBit rate                                 : 256 Kbps\nChannel(s)                               : 2 channels\nChannel positions                        : Front: L R\nSampling rate                            : 44.1 KHz\nCompression mode                         : Lossy\nStream size                              : 7.84 MiB (8%)\n &lt;a href=&quot;\nhttps://thepiratebay.se/user/MeRaDil&quot; rel=&quot;nofollow&quot; target=&quot;_NEW&quot;&gt;\nhttps://thepiratebay.se/user/MeRaDil&lt;/a&gt;\n\nPitbull * Don Miguelo * Latin * Spanish * Promo\n\n:)","torrent":{"xt":"urn:btih:e71f96fcb4ff37672a762b04274494b6fbbf2244","amp;dn":"Pitbull+ft.Don+Miguelo+-+Como+Yo+Le+Doy+%282014.Latin%29","amp;tr":["udp%3A%2F%2Ftracker.openbittorrent.com%3A80","udp%3A%2F%2Fopen.demonii.com%3A1337","udp%3A%2F%2Ftracker.coppersurfer.tk%3A6969","udp%3A%2F%2Fexodus.desync.com%3A6969"],"infoHash":"e71f96fcb4ff37672a762b04274494b6fbbf2244","infoHashBuffer":{"type":"Buffer","data":[231,31,150,252,180,255,55,103,42,118,43,4,39,68,148,182,251,191,34,68]},"announce":[],"urlList":[]}}